<mxfile host="app.diagrams.net" modified="2023-11-07T09:09:08.627Z" agent="Mozilla/5.0 (Windows NT 10.0; Win64; x64; rv:109.0) Gecko/20100101 Firefox/118.0" etag="8B3V3P6fBrWF7k4KbbQe" version="22.0.8" type="device">
  <diagram name="Page-1" id="ySUTEen5wOdhgKpzgKmZ">
    <mxGraphModel dx="1930" dy="938" grid="1" gridSize="10" guides="1" tooltips="1" connect="1" arrows="1" fold="1" page="1" pageScale="1" pageWidth="850" pageHeight="1100" math="0" shadow="0">
      <root>
        <mxCell id="0" />
        <mxCell id="1" parent="0" />
        <mxCell id="YEOLPIXr2C2jkLLGHpBn-8" style="edgeStyle=none;rounded=0;orthogonalLoop=1;jettySize=auto;html=1;exitX=0;exitY=0.75;exitDx=0;exitDy=0;entryX=1;entryY=0.5;entryDx=0;entryDy=0;" edge="1" parent="1" source="YEOLPIXr2C2jkLLGHpBn-1" target="YEOLPIXr2C2jkLLGHpBn-4">
          <mxGeometry relative="1" as="geometry" />
        </mxCell>
        <mxCell id="YEOLPIXr2C2jkLLGHpBn-1" value="CCU" style="rounded=0;whiteSpace=wrap;html=1;" vertex="1" parent="1">
          <mxGeometry x="630" y="440" width="120" height="80" as="geometry" />
        </mxCell>
        <mxCell id="YEOLPIXr2C2jkLLGHpBn-11" style="edgeStyle=none;rounded=0;orthogonalLoop=1;jettySize=auto;html=1;exitX=1;exitY=0.25;exitDx=0;exitDy=0;entryX=0;entryY=0.5;entryDx=0;entryDy=0;" edge="1" parent="1" source="YEOLPIXr2C2jkLLGHpBn-2" target="YEOLPIXr2C2jkLLGHpBn-3">
          <mxGeometry relative="1" as="geometry" />
        </mxCell>
        <mxCell id="YEOLPIXr2C2jkLLGHpBn-2" value="Web BE" style="rounded=0;whiteSpace=wrap;html=1;" vertex="1" parent="1">
          <mxGeometry x="130" y="440" width="120" height="80" as="geometry" />
        </mxCell>
        <mxCell id="YEOLPIXr2C2jkLLGHpBn-3" value="Request" style="ellipse;whiteSpace=wrap;html=1;" vertex="1" parent="1">
          <mxGeometry x="318" y="405" width="80" height="50" as="geometry" />
        </mxCell>
        <mxCell id="YEOLPIXr2C2jkLLGHpBn-4" value="Response" style="ellipse;whiteSpace=wrap;html=1;" vertex="1" parent="1">
          <mxGeometry x="473" y="500" width="80" height="50" as="geometry" />
        </mxCell>
        <mxCell id="YEOLPIXr2C2jkLLGHpBn-10" style="edgeStyle=none;rounded=0;orthogonalLoop=1;jettySize=auto;html=1;exitX=0.5;exitY=1;exitDx=0;exitDy=0;exitPerimeter=0;entryX=1;entryY=0.75;entryDx=0;entryDy=0;" edge="1" parent="1" source="YEOLPIXr2C2jkLLGHpBn-5" target="YEOLPIXr2C2jkLLGHpBn-2">
          <mxGeometry relative="1" as="geometry" />
        </mxCell>
        <mxCell id="YEOLPIXr2C2jkLLGHpBn-5" value="" style="shape=cylinder3;whiteSpace=wrap;html=1;boundedLbl=1;backgroundOutline=1;size=15;rotation=90;" vertex="1" parent="1">
          <mxGeometry x="361.75" y="453.75" width="40" height="142.5" as="geometry" />
        </mxCell>
        <mxCell id="YEOLPIXr2C2jkLLGHpBn-13" style="edgeStyle=none;rounded=0;orthogonalLoop=1;jettySize=auto;html=1;exitX=0.325;exitY=1.013;exitDx=0;exitDy=0;exitPerimeter=0;entryX=0;entryY=0.25;entryDx=0;entryDy=0;" edge="1" parent="1" source="YEOLPIXr2C2jkLLGHpBn-6" target="YEOLPIXr2C2jkLLGHpBn-1">
          <mxGeometry relative="1" as="geometry" />
        </mxCell>
        <mxCell id="YEOLPIXr2C2jkLLGHpBn-6" value="" style="shape=cylinder3;whiteSpace=wrap;html=1;boundedLbl=1;backgroundOutline=1;size=15;rotation=-90;" vertex="1" parent="1">
          <mxGeometry x="475" y="355" width="40" height="150" as="geometry" />
        </mxCell>
        <mxCell id="YEOLPIXr2C2jkLLGHpBn-9" style="edgeStyle=none;rounded=0;orthogonalLoop=1;jettySize=auto;html=1;exitX=0;exitY=0.5;exitDx=0;exitDy=0;entryX=0.5;entryY=0;entryDx=0;entryDy=0;entryPerimeter=0;" edge="1" parent="1" source="YEOLPIXr2C2jkLLGHpBn-4" target="YEOLPIXr2C2jkLLGHpBn-5">
          <mxGeometry relative="1" as="geometry">
            <mxPoint x="350" y="560" as="targetPoint" />
          </mxGeometry>
        </mxCell>
        <mxCell id="YEOLPIXr2C2jkLLGHpBn-12" style="edgeStyle=none;rounded=0;orthogonalLoop=1;jettySize=auto;html=1;exitX=1;exitY=0.5;exitDx=0;exitDy=0;entryX=0.5;entryY=0;entryDx=0;entryDy=0;entryPerimeter=0;" edge="1" parent="1" source="YEOLPIXr2C2jkLLGHpBn-3" target="YEOLPIXr2C2jkLLGHpBn-6">
          <mxGeometry relative="1" as="geometry" />
        </mxCell>
        <mxCell id="YEOLPIXr2C2jkLLGHpBn-14" style="edgeStyle=none;rounded=0;orthogonalLoop=1;jettySize=auto;html=1;exitX=1;exitY=0.25;exitDx=0;exitDy=0;" edge="1" parent="1" source="YEOLPIXr2C2jkLLGHpBn-1" target="YEOLPIXr2C2jkLLGHpBn-1">
          <mxGeometry relative="1" as="geometry" />
        </mxCell>
        <mxCell id="YEOLPIXr2C2jkLLGHpBn-16" value="backend_request" style="text;html=1;align=center;verticalAlign=middle;resizable=0;points=[];autosize=1;strokeColor=none;fillColor=none;" vertex="1" parent="1">
          <mxGeometry x="450" y="415" width="120" height="30" as="geometry" />
        </mxCell>
        <mxCell id="YEOLPIXr2C2jkLLGHpBn-17" value="backend_response" style="text;html=1;align=center;verticalAlign=middle;resizable=0;points=[];autosize=1;strokeColor=none;fillColor=none;" vertex="1" parent="1">
          <mxGeometry x="305" y="510" width="130" height="30" as="geometry" />
        </mxCell>
      </root>
    </mxGraphModel>
  </diagram>
</mxfile>
